#usda 1.0
(
    endTimeCode = 60
    startTimeCode = 0
    timeCodesPerSecond = 24
    upAxis = "Y"
)

def SkelRoot "Face"
{
    def Mesh "FaceMesh" (
        prepend apiSchemas = ["SkelBindingAPI"]
    )
    {
        custom float blendShape:frown
        float blendShape:frown.timeSamples = {
            0: 0,
            1: 0,
            2: 0,
            3: 0,
            4: 0,
            5: 0,
            6: 0,
            7: 0,
            8: 0,
            9: 0,
            10: 0,
            11: 0,
            12: 0,
            13: 0,
            14: 0,
            15: 0,
            16: 0,
            17: 0,
            18: 0,
            19: 0,
            20: 0,
            21: 0,
            22: 0,
            23: 0,
            24: 0,
            25: 0.041666668,
            26: 0.083333336,
            27: 0.125,
            28: 0.16666667,
            29: 0.20833333,
            30: 0.25,
            31: 0.29166666,
            32: 0.33333334,
            33: 0.375,
            34: 0.41666666,
            35: 0.45833334,
            36: 0.5,
            37: 0.5416667,
            38: 0.5833333,
            39: 0.625,
            40: 0.6666667,
            41: 0.7083333,
            42: 0.75,
            43: 0.7916667,
            44: 0.8333333,
            45: 0.875,
            46: 0.9166667,
            47: 0.9583333,
            48: 1,
            49: 0.9583333,
            50: 0.9166667,
            51: 0.875,
            52: 0.8333333,
            53: 0.7916667,
            54: 0.75,
            55: 0.7083333,
            56: 0.6666667,
            57: 0.625,
            58: 0.5833333,
            59: 0.5416667,
            60: 0.5,
        }
        custom float blendShape:smile
        float blendShape:smile.timeSamples = {
            0: 0,
            1: 0.041666668,
            2: 0.083333336,
            3: 0.125,
            4: 0.16666667,
            5: 0.20833333,
            6: 0.25,
            7: 0.29166666,
            8: 0.33333334,
            9: 0.375,
            10: 0.41666666,
            11: 0.45833334,
            12: 0.5,
            13: 0.5416667,
            14: 0.5833333,
            15: 0.625,
            16: 0.6666667,
            17: 0.7083333,
            18: 0.75,
            19: 0.7916667,
            20: 0.8333333,
            21: 0.875,
            22: 0.9166667,
            23: 0.9583333,
            24: 1,
            25: 0.9583333,
            26: 0.9166667,
            27: 0.875,
            28: 0.8333333,
            29: 0.7916667,
            30: 0.75,
            31: 0.7083333,
            32: 0.6666667,
            33: 0.625,
            34: 0.5833333,
            35: 0.5416667,
            36: 0.5,
            37: 0.45833334,
            38: 0.41666666,
            39: 0.375,
            40: 0.33333334,
            41: 0.29166666,
            42: 0.25,
            43: 0.20833333,
            44: 0.16666667,
            45: 0.125,
            46: 0.083333336,
            47: 0.041666668,
            48: 0,
            49: 0,
            50: 0,
            51: 0,
            52: 0,
            53: 0,
            54: 0,
            55: 0,
            56: 0,
            57: 0,
            58: 0,
            59: 0,
            60: 0,
        }
        custom float blendShape:wideEyes
        float blendShape:wideEyes.timeSamples = {
            0: 0,
            1: 0,
            2: 0,
            3: 0,
            4: 0,
            5: 0,
            6: 0,
            7: 0,
            8: 0,
            9: 0,
            10: 0,
            11: 0,
            12: 0,
            13: 0,
            14: 0,
            15: 0,
            16: 0,
            17: 0,
            18: 0,
            19: 0,
            20: 0,
            21: 0,
            22: 0,
            23: 0,
            24: 0,
            25: 0,
            26: 0,
            27: 0,
            28: 0,
            29: 0,
            30: 0,
            31: 0,
            32: 0,
            33: 0,
            34: 0,
            35: 0,
            36: 0,
            37: 0,
            38: 0,
            39: 0,
            40: 0,
            41: 0,
            42: 0,
            43: 0,
            44: 0,
            45: 0,
            46: 0,
            47: 0,
            48: 0,
            49: 0.083333336,
            50: 0.16666667,
            51: 0.25,
            52: 0.33333334,
            53: 0.41666666,
            54: 0.5,
            55: 0.5833333,
            56: 0.6666667,
            57: 0.75,
            58: 0.8333333,
            59: 0.9166667,
            60: 1,
        }
        int[] faceVertexCounts = [4]
        int[] faceVertexIndices = [0, 1, 2, 3]
        point3f[] points = [(-1, -1, 0), (1, -1, 0), (1, 1, 0), (-1, 1, 0)]
        color3f[] primvars:displayColor = [(0.9, 0.8, 0.7)]

        def BlendShape "BlendShapes"
        {
            uniform vector3f[] offsets.timeSamples = {
                0: [(0, 0.2, 0), (0, 0.2, 0), (0, -0.1, 0), (0, -0.1, 0)],
            }
        }
    }

    def Xform "Targets"
    {
        double3 xformOp:translate = (3, 0, 0)
        uniform token[] xformOpOrder = ["xformOp:translate"]

        def Sphere "SmileMarker"
        {
            color3f[] primvars:displayColor = [(0, 1, 0)]
            double radius = 0.1
            double3 xformOp:translate = (0, 1, 0)
            uniform token[] xformOpOrder = ["xformOp:translate"]
        }

        def Sphere "FrownMarker"
        {
            color3f[] primvars:displayColor = [(1, 0, 0)]
            double radius = 0.1
            double3 xformOp:translate = (0, 0, 0)
            uniform token[] xformOpOrder = ["xformOp:translate"]
        }

        def Sphere "WideMarker"
        {
            color3f[] primvars:displayColor = [(0, 0, 1)]
            double radius = 0.1
            double3 xformOp:translate = (0, -1, 0)
            uniform token[] xformOpOrder = ["xformOp:translate"]
        }
    }
}

