mtllib cube.mtl
o Cube_Test
v 1.000000 -1.000000 -1.000000
v 1.000000 1.000000 -1.000000
v 1.000000 -1.000000 1.000000
v 1.000000 1.000000 1.000000
v -1.000000 -1.000000 -1.000000
v -1.000000 1.000000 -1.000000
v -1.000000 -1.000000 1.000000
v -1.000000 1.000000 1.000000
vn 1.0000 -0.0000 -0.0000
vn -0.0000 -0.0000 1.0000
vn -1.0000 -0.0000 -0.0000
vn -0.0000 -0.0000 -1.0000
vn -0.0000 -1.0000 -0.0000
vn -0.0000 1.0000 -0.0000
vt 0.901922 0.874979
vt 0.279387 0.095625
vt 0.890693 0.115310
vt 0.710288 0.884778
vt 0.075074 0.090725
vt 0.063481 0.615047
vt 0.581145 0.889589
vt 0.890693 0.365267
vt 0.896850 0.651969
vt 0.710288 0.634821
vt 0.379368 0.884690
vt 0.063481 0.865004
vt 0.279387 0.453368
vt 0.577341 0.127559
vt 0.713006 0.115310
vt 0.398387 0.139807
vt 0.077610 0.458267
vt 0.236096 0.627296
vt 0.577341 0.377515
vt 0.578609 0.646981
vt 0.713006 0.365267
vt 0.236096 0.877253
vt 0.384440 0.654331
vt 0.398387 0.389764
s 0
usemtl CubeMat
f 2/4/1 3/9/1 1/1/1
f 4/11/2 7/20/2 3/7/2
f 8/24/3 5/14/3 7/19/3
f 6/17/4 1/2/4 5/13/4
f 7/21/5 1/3/5 3/8/5
f 4/12/6 6/18/6 8/22/6
f 2/4/1 4/10/1 3/9/1
f 4/11/2 8/23/2 7/20/2
f 8/24/3 6/16/3 5/14/3
f 6/17/4 2/5/4 1/2/4
f 7/21/5 5/15/5 1/3/5
f 4/12/6 2/6/6 6/18/6
