#usda 1.0
(
    endTimeCode = 120
    framesPerSecond = 24
    startTimeCode = 0
    timeCodesPerSecond = 24
    upAxis = "Y"
)

def Xform "Animation"
{
    def Sphere "BouncingBall"
    {
        color3f[] primvars:displayColor = [(1, 0, 0)]
        double radius = 0.5
        double3 xformOp:translate.timeSamples = {
            0: (-4, 0, 0),
            1: (-4, 0.7764571353075622, 0),
            2: (-4, 1.4999999999999998, 0),
            3: (-4, 2.1213203435596424, 0),
            4: (-4, 2.598076211353316, 0),
            5: (-4, 2.897777478867205, 0),
            6: (-4, 3, 0),
            7: (-4, 2.897777478867205, 0),
            8: (-4, 2.598076211353316, 0),
            9: (-4, 2.121320343559643, 0),
            10: (-4, 1.4999999999999998, 0),
            11: (-4, 0.7764571353075631, 0),
            12: (-4, 3.6739403974420594e-16, 0),
            13: (-4, 0.7764571353075611, 0),
            14: (-4, 1.5000000000000004, 0),
            15: (-4, 2.1213203435596424, 0),
            16: (-4, 2.598076211353315, 0),
            17: (-4, 2.897777478867205, 0),
            18: (-4, 3, 0),
            19: (-4, 2.897777478867205, 0),
            20: (-4, 2.598076211353316, 0),
            21: (-4, 2.121320343559643, 0),
            22: (-4, 1.5000000000000013, 0),
            23: (-4, 0.776457135307562, 0),
            24: (-4, 7.347880794884119e-16, 0),
            25: (-4, 0.7764571353075632, 0),
            26: (-4, 1.4999999999999978, 0),
            27: (-4, 2.121320343559642, 0),
            28: (-4, 2.5980762113533165, 0),
            29: (-4, 2.897777478867204, 0),
            30: (-4, 3, 0),
            31: (-4, 2.897777478867205, 0),
            32: (-4, 2.5980762113533173, 0),
            33: (-4, 2.1213203435596455, 0),
            34: (-4, 1.4999999999999993, 0),
            35: (-4, 0.7764571353075624, 0),
            36: (-4, 1.102182119232618e-15, 0),
            37: (-4, 0.7764571353075604, 0),
            38: (-4, 1.4999999999999976, 0),
            39: (-4, 2.1213203435596437, 0),
            40: (-4, 2.598076211353316, 0),
            41: (-4, 2.8977774788672046, 0),
            42: (-4, 3, 0),
            43: (-4, 2.8977774788672055, 0),
            44: (-4, 2.5980762113533173, 0),
            45: (-4, 2.1213203435596455, 0),
            46: (-4, 1.4999999999999996, 0),
            47: (-4, 0.7764571353075629, 0),
            48: (-4, 1.4695761589768238e-15, 0),
            49: (-4, 0.77645713530756, 0),
            50: (-4, 1.5000000000000018, 0),
            51: (-4, 2.1213203435596433, 0),
            52: (-4, 2.5980762113533133, 0),
            53: (-4, 2.8977774788672046, 0),
            54: (-4, 3, 0),
            55: (-4, 2.8977774788672055, 0),
            56: (-4, 2.598076211353315, 0),
            57: (-4, 2.1213203435596455, 0),
            58: (-4, 1.5000000000000047, 0),
            59: (-4, 0.7764571353075632, 0),
            60: (-4, 1.83697019872103e-15, 0),
            61: (-4, 0.7764571353075596, 0),
            62: (-4, 1.499999999999997, 0),
            63: (-4, 2.121320343559643, 0),
            64: (-4, 2.5980762113533133, 0),
            65: (-4, 2.8977774788672046, 0),
            66: (-4, 3, 0),
            67: (-4, 2.8977774788672055, 0),
            68: (-4, 2.598076211353315, 0),
            69: (-4, 2.121320343559646, 0),
            70: (-4, 1.5000000000000004, 0),
            71: (-4, 0.7764571353075584, 0),
            72: (-4, 2.204364238465236e-15, 0),
            73: (-4, 0.776457135307554, 0),
            74: (-4, 1.4999999999999964, 0),
            75: (-4, 2.121320343559643, 0),
            76: (-4, 2.5980762113533133, 0),
            77: (-4, 2.8977774788672046, 0),
            78: (-4, 3, 0),
            79: (-4, 2.8977774788672055, 0),
            80: (-4, 2.5980762113533156, 0),
            81: (-4, 2.1213203435596464, 0),
            82: (-4, 1.5000000000000007, 0),
            83: (-4, 0.7764571353075587, 0),
            84: (-4, 2.5717582782094417e-15, 0),
            85: (-4, 0.7764571353075538, 0),
            86: (-4, 1.4999999999999962, 0),
            87: (-4, 2.121320343559643, 0),
            88: (-4, 2.598076211353313, 0),
            89: (-4, 2.897777478867204, 0),
            90: (-4, 3, 0),
            91: (-4, 2.897777478867206, 0),
            92: (-4, 2.5980762113533156, 0),
            93: (-4, 2.1213203435596464, 0),
            94: (-4, 1.5000000000000009, 0),
            95: (-4, 0.7764571353075591, 0),
            96: (-4, 2.9391523179536475e-15, 0),
            97: (-4, 0.7764571353075638, 0),
            98: (-4, 1.4999999999999958, 0),
            99: (-4, 2.1213203435596424, 0),
            100: (-4, 2.598076211353318, 0),
            101: (-4, 2.8977774788672015, 0),
            102: (-4, 3, 0),
            103: (-4, 2.8977774788672033, 0),
            104: (-4, 2.5980762113533213, 0),
            105: (-4, 2.121320343559647, 0),
            106: (-4, 1.5000000000000013, 0),
            107: (-4, 0.7764571353075698, 0),
            108: (-4, 3.3065463576978537e-15, 0),
            109: (-4, 0.7764571353075633, 0),
            110: (-4, 1.4999999999999956, 0),
            111: (-4, 2.121320343559642, 0),
            112: (-4, 2.598076211353318, 0),
            113: (-4, 2.8977774788672015, 0),
            114: (-4, 3, 0),
            115: (-4, 2.8977774788672033, 0),
            116: (-4, 2.5980762113533213, 0),
            117: (-4, 2.1213203435596473, 0),
            118: (-4, 1.5000000000000018, 0),
            119: (-4, 0.77645713530757, 0),
            120: (-4, 3.67394039744206e-15, 0),
        }
        uniform token[] xformOpOrder = ["xformOp:translate"]
    }

    def Cube "RotatingCube"
    {
        color3f[] primvars:displayColor = [(0, 1, 0)]
        double size = 1
        float xformOp:rotateY.timeSamples = {
            0: 0,
            1: 3,
            2: 6,
            3: 9,
            4: 12,
            5: 15,
            6: 18,
            7: 21,
            8: 24,
            9: 27,
            10: 30,
            11: 33,
            12: 36,
            13: 39,
            14: 42,
            15: 45,
            16: 48,
            17: 51,
            18: 54,
            19: 57,
            20: 60,
            21: 63,
            22: 66,
            23: 69,
            24: 72,
            25: 75,
            26: 78,
            27: 81,
            28: 84,
            29: 87,
            30: 90,
            31: 93,
            32: 96,
            33: 99,
            34: 102,
            35: 105,
            36: 108,
            37: 111,
            38: 114,
            39: 117,
            40: 120,
            41: 123,
            42: 126,
            43: 129,
            44: 132,
            45: 135,
            46: 138,
            47: 141,
            48: 144,
            49: 147,
            50: 150,
            51: 153,
            52: 156,
            53: 159,
            54: 162,
            55: 165,
            56: 168,
            57: 171,
            58: 174,
            59: 177,
            60: 180,
            61: 183,
            62: 186,
            63: 189,
            64: 192,
            65: 195,
            66: 198,
            67: 201,
            68: 204,
            69: 207,
            70: 210,
            71: 213,
            72: 216,
            73: 219,
            74: 222,
            75: 225,
            76: 228,
            77: 231,
            78: 234,
            79: 237,
            80: 240,
            81: 243,
            82: 246,
            83: 249,
            84: 252,
            85: 255,
            86: 258,
            87: 261,
            88: 264,
            89: 267,
            90: 270,
            91: 273,
            92: 276,
            93: 279,
            94: 282,
            95: 285,
            96: 288,
            97: 291,
            98: 294,
            99: 297,
            100: 300,
            101: 303,
            102: 306,
            103: 309,
            104: 312,
            105: 315,
            106: 318,
            107: 321,
            108: 324,
            109: 327,
            110: 330,
            111: 333,
            112: 336,
            113: 339,
            114: 342,
            115: 345,
            116: 348,
            117: 351,
            118: 354,
            119: 357,
            120: 360,
        }
        double3 xformOp:translate = (0, 1, 0)
        uniform token[] xformOpOrder = ["xformOp:translate", "xformOp:rotateY"]
    }

    def Cylinder "PulsingCylinder"
    {
        double height = 2
        color3f[] primvars:displayColor = [(0, 0, 1)]
        float3 xformOp:scale.timeSamples = {
            0: (1, 1, 1),
            1: (1.25, 1, 1.25),
            2: (1.4330127, 1, 1.4330127),
            3: (1.5, 1, 1.5),
            4: (1.4330127, 1, 1.4330127),
            5: (1.25, 1, 1.25),
            6: (1, 1, 1),
            7: (0.75, 1, 0.75),
            8: (0.5669873, 1, 0.5669873),
            9: (0.5, 1, 0.5),
            10: (0.5669873, 1, 0.5669873),
            11: (0.75, 1, 0.75),
            12: (1, 1, 1),
            13: (1.25, 1, 1.25),
            14: (1.4330127, 1, 1.4330127),
            15: (1.5, 1, 1.5),
            16: (1.4330127, 1, 1.4330127),
            17: (1.25, 1, 1.25),
            18: (1, 1, 1),
            19: (0.75, 1, 0.75),
            20: (0.5669873, 1, 0.5669873),
            21: (0.5, 1, 0.5),
            22: (0.5669873, 1, 0.5669873),
            23: (0.75, 1, 0.75),
            24: (1, 1, 1),
            25: (1.25, 1, 1.25),
            26: (1.4330127, 1, 1.4330127),
            27: (1.5, 1, 1.5),
            28: (1.4330127, 1, 1.4330127),
            29: (1.25, 1, 1.25),
            30: (1, 1, 1),
            31: (0.75, 1, 0.75),
            32: (0.5669873, 1, 0.5669873),
            33: (0.5, 1, 0.5),
            34: (0.5669873, 1, 0.5669873),
            35: (0.75, 1, 0.75),
            36: (1, 1, 1),
            37: (1.25, 1, 1.25),
            38: (1.4330127, 1, 1.4330127),
            39: (1.5, 1, 1.5),
            40: (1.4330127, 1, 1.4330127),
            41: (1.25, 1, 1.25),
            42: (1, 1, 1),
            43: (0.75, 1, 0.75),
            44: (0.5669873, 1, 0.5669873),
            45: (0.5, 1, 0.5),
            46: (0.5669873, 1, 0.5669873),
            47: (0.75, 1, 0.75),
            48: (1, 1, 1),
            49: (1.25, 1, 1.25),
            50: (1.4330127, 1, 1.4330127),
            51: (1.5, 1, 1.5),
            52: (1.4330127, 1, 1.4330127),
            53: (1.25, 1, 1.25),
            54: (1, 1, 1),
            55: (0.75, 1, 0.75),
            56: (0.5669873, 1, 0.5669873),
            57: (0.5, 1, 0.5),
            58: (0.5669873, 1, 0.5669873),
            59: (0.75, 1, 0.75),
            60: (1, 1, 1),
            61: (1.25, 1, 1.25),
            62: (1.4330127, 1, 1.4330127),
            63: (1.5, 1, 1.5),
            64: (1.4330127, 1, 1.4330127),
            65: (1.25, 1, 1.25),
            66: (1, 1, 1),
            67: (0.75, 1, 0.75),
            68: (0.5669873, 1, 0.5669873),
            69: (0.5, 1, 0.5),
            70: (0.5669873, 1, 0.5669873),
            71: (0.75, 1, 0.75),
            72: (1, 1, 1),
            73: (1.25, 1, 1.25),
            74: (1.4330127, 1, 1.4330127),
            75: (1.5, 1, 1.5),
            76: (1.4330127, 1, 1.4330127),
            77: (1.25, 1, 1.25),
            78: (1, 1, 1),
            79: (0.75, 1, 0.75),
            80: (0.5669873, 1, 0.5669873),
            81: (0.5, 1, 0.5),
            82: (0.5669873, 1, 0.5669873),
            83: (0.75, 1, 0.75),
            84: (1, 1, 1),
            85: (1.25, 1, 1.25),
            86: (1.4330127, 1, 1.4330127),
            87: (1.5, 1, 1.5),
            88: (1.4330127, 1, 1.4330127),
            89: (1.25, 1, 1.25),
            90: (1, 1, 1),
            91: (0.75, 1, 0.75),
            92: (0.5669873, 1, 0.5669873),
            93: (0.5, 1, 0.5),
            94: (0.5669873, 1, 0.5669873),
            95: (0.75, 1, 0.75),
            96: (1, 1, 1),
            97: (1.25, 1, 1.25),
            98: (1.4330127, 1, 1.4330127),
            99: (1.5, 1, 1.5),
            100: (1.4330127, 1, 1.4330127),
            101: (1.25, 1, 1.25),
            102: (1, 1, 1),
            103: (0.75, 1, 0.75),
            104: (0.5669873, 1, 0.5669873),
            105: (0.5, 1, 0.5),
            106: (0.5669873, 1, 0.5669873),
            107: (0.75, 1, 0.75),
            108: (1, 1, 1),
            109: (1.25, 1, 1.25),
            110: (1.4330127, 1, 1.4330127),
            111: (1.5, 1, 1.5),
            112: (1.4330127, 1, 1.4330127),
            113: (1.25, 1, 1.25),
            114: (1, 1, 1),
            115: (0.75, 1, 0.75),
            116: (0.5669873, 1, 0.5669873),
            117: (0.5, 1, 0.5),
            118: (0.5669873, 1, 0.5669873),
            119: (0.75, 1, 0.75),
            120: (1, 1, 1),
        }
        double3 xformOp:translate = (4, 1, 0)
        uniform token[] xformOpOrder = ["xformOp:translate", "xformOp:scale"]
    }

    def Sphere "Earth"
    {
        color3f[] primvars:displayColor = [(0, 0.5, 1)]
        double radius = 1
        float xformOp:rotateY.timeSamples = {
            0: 0,
            1: 3,
            2: 6,
            3: 9,
            4: 12,
            5: 15,
            6: 18,
            7: 21,
            8: 24,
            9: 27,
            10: 30,
            11: 33,
            12: 36,
            13: 39,
            14: 42,
            15: 45,
            16: 48,
            17: 51,
            18: 54,
            19: 57,
            20: 60,
            21: 63,
            22: 66,
            23: 69,
            24: 72,
            25: 75,
            26: 78,
            27: 81,
            28: 84,
            29: 87,
            30: 90,
            31: 93,
            32: 96,
            33: 99,
            34: 102,
            35: 105,
            36: 108,
            37: 111,
            38: 114,
            39: 117,
            40: 120,
            41: 123,
            42: 126,
            43: 129,
            44: 132,
            45: 135,
            46: 138,
            47: 141,
            48: 144,
            49: 147,
            50: 150,
            51: 153,
            52: 156,
            53: 159,
            54: 162,
            55: 165,
            56: 168,
            57: 171,
            58: 174,
            59: 177,
            60: 180,
            61: 183,
            62: 186,
            63: 189,
            64: 192,
            65: 195,
            66: 198,
            67: 201,
            68: 204,
            69: 207,
            70: 210,
            71: 213,
            72: 216,
            73: 219,
            74: 222,
            75: 225,
            76: 228,
            77: 231,
            78: 234,
            79: 237,
            80: 240,
            81: 243,
            82: 246,
            83: 249,
            84: 252,
            85: 255,
            86: 258,
            87: 261,
            88: 264,
            89: 267,
            90: 270,
            91: 273,
            92: 276,
            93: 279,
            94: 282,
            95: 285,
            96: 288,
            97: 291,
            98: 294,
            99: 297,
            100: 300,
            101: 303,
            102: 306,
            103: 309,
            104: 312,
            105: 315,
            106: 318,
            107: 321,
            108: 324,
            109: 327,
            110: 330,
            111: 333,
            112: 336,
            113: 339,
            114: 342,
            115: 345,
            116: 348,
            117: 351,
            118: 354,
            119: 357,
            120: 360,
        }
        double3 xformOp:translate = (-4, -3, 0)
        uniform token[] xformOpOrder = ["xformOp:translate", "xformOp:rotateY"]

        def Sphere "Moon"
        {
            color3f[] primvars:displayColor = [(0.8, 0.8, 0.8)]
            double radius = 0.3
            double3 xformOp:translate.timeSamples = {
                0: (2.5, 0, 0),
                1: (2.4148145657226707, 0, 0.6470476127563018),
                2: (2.165063509461097, 0, 1.2499999999999998),
                3: (1.7677669529663689, 0, 1.7677669529663687),
                4: (1.2500000000000002, 0, 2.1650635094610964),
                5: (0.6470476127563018, 0, 2.4148145657226707),
                6: (1.5308084989341916e-16, 0, 2.5),
                7: (-0.6470476127563021, 0, 2.4148145657226707),
                8: (-1.2499999999999996, 0, 2.165063509461097),
                9: (-1.7677669529663687, 0, 1.7677669529663689),
                10: (-2.165063509461097, 0, 1.2499999999999998),
                11: (-2.4148145657226703, 0, 0.6470476127563025),
                12: (-2.5, 0, 3.061616997868383e-16),
                13: (-2.414814565722671, 0, -0.6470476127563008),
                14: (-2.1650635094610964, 0, -1.2500000000000002),
                15: (-1.7677669529663693, 0, -1.7677669529663687),
                16: (-1.250000000000001, 0, -2.165063509461096),
                17: (-0.6470476127563016, 0, -2.4148145657226707),
                18: (-4.592425496802574e-16, 0, -2.5),
                19: (0.6470476127563007, 0, -2.414814565722671),
                20: (1.2500000000000002, 0, -2.1650635094610964),
                21: (1.7677669529663684, 0, -1.7677669529663693),
                22: (2.165063509461096, 0, -1.250000000000001),
                23: (2.4148145657226707, 0, -0.6470476127563017),
                24: (2.5, 0, -6.123233995736766e-16),
                25: (2.4148145657226703, 0, 0.6470476127563027),
                26: (2.1650635094610977, 0, 1.2499999999999982),
                27: (1.7677669529663693, 0, 1.7677669529663684),
                28: (1.2499999999999993, 0, 2.1650635094610973),
                29: (0.6470476127563041, 0, 2.4148145657226703),
                30: (7.654042494670958e-16, 0, 2.5),
                31: (-0.6470476127563005, 0, 2.414814565722671),
                32: (-1.249999999999998, 0, 2.1650635094610977),
                33: (-1.7677669529663667, 0, 1.767766952966371),
                34: (-2.1650635094610973, 0, 1.2499999999999996),
                35: (-2.4148145657226707, 0, 0.647047612756302),
                36: (-2.5, 0, 9.184850993605148e-16),
                37: (-2.414814565722671, 0, -0.6470476127563003),
                38: (-2.1650635094610977, 0, -1.249999999999998),
                39: (-1.767766952966368, 0, -1.7677669529663698),
                40: (-1.2499999999999996, 0, -2.165063509461097),
                41: (-0.6470476127563023, 0, -2.4148145657226703),
                42: (-1.0715659492539341e-15, 0, -2.5),
                43: (0.6470476127563002, 0, -2.414814565722671),
                44: (1.2499999999999978, 0, -2.1650635094610977),
                45: (1.7677669529663664, 0, -1.767766952966371),
                46: (2.165063509461097, 0, -1.2499999999999998),
                47: (2.4148145657226703, 0, -0.6470476127563024),
                48: (2.5, 0, -1.2246467991473533e-15),
                49: (2.414814565722671, 0, 0.6470476127563001),
                50: (2.1650635094610955, 0, 1.2500000000000013),
                51: (1.767766952966368, 0, 1.7677669529663695),
                52: (1.2500000000000036, 0, 2.1650635094610946),
                53: (0.6470476127563025, 0, 2.4148145657226703),
                54: (1.3777276490407724e-15, 0, 2.5),
                55: (-0.6470476127562997, 0, 2.414814565722671),
                56: (-1.2500000000000013, 0, 2.165063509461096),
                57: (-1.7677669529663662, 0, 1.7677669529663715),
                58: (-2.165063509461094, 0, 1.250000000000004),
                59: (-2.4148145657226703, 0, 0.6470476127563027),
                60: (-2.5, 0, 1.5308084989341915e-15),
                61: (-2.414814565722671, 0, -0.6470476127562996),
                62: (-2.165063509461098, 0, -1.2499999999999973),
                63: (-1.7677669529663684, 0, -1.7677669529663693),
                64: (-1.250000000000004, 0, -2.165063509461094),
                65: (-0.6470476127563028, 0, -2.4148145657226703),
                66: (-6.124781447328236e-15, 0, -2.5),
                67: (0.6470476127562995, 0, -2.414814565722671),
                68: (1.250000000000001, 0, -2.165063509461096),
                69: (1.7677669529663662, 0, -1.7677669529663718),
                70: (2.1650635094610964, 0, -1.2500000000000002),
                71: (2.4148145657226716, 0, -0.6470476127562986),
                72: (2.5, 0, -1.8369701987210296e-15),
                73: (2.4148145657226725, 0, 0.6470476127562951),
                74: (2.165063509461098, 0, 1.2499999999999971),
                75: (1.7677669529663687, 0, 1.7677669529663693),
                76: (1.2500000000000042, 0, 2.165063509461094),
                77: (0.6470476127563031, 0, 2.4148145657226703),
                78: (-2.450841049886177e-15, 0, 2.5),
                79: (-0.6470476127562992, 0, 2.414814565722671),
                80: (-1.2500000000000009, 0, 2.1650635094610964),
                81: (-1.7677669529663658, 0, 1.767766952966372),
                82: (-2.1650635094610964, 0, 1.2500000000000004),
                83: (-2.4148145657226716, 0, 0.647047612756299),
                84: (-2.5, 0, 2.1431318985078682e-15),
                85: (-2.414814565722673, 0, -0.6470476127562947),
                86: (-2.1650635094610986, 0, -1.249999999999997),
                87: (-1.7677669529663689, 0, -1.7677669529663689),
                88: (-1.2500000000000044, 0, -2.165063509461094),
                89: (-0.6470476127563034, 0, -2.4148145657226703),
                90: (-6.737104846901913e-15, 0, -2.5),
                91: (0.647047612756299, 0, -2.4148145657226716),
                92: (1.2500000000000004, 0, -2.1650635094610964),
                93: (1.7677669529663655, 0, -1.767766952966372),
                94: (2.1650635094610964, 0, -1.2500000000000009),
                95: (2.414814565722671, 0, -0.6470476127562992),
                96: (2.5, 0, -2.4492935982947065e-15),
                97: (2.4148145657226703, 0, 0.6470476127563031),
                98: (2.1650635094610986, 0, 1.2499999999999964),
                99: (1.7677669529663689, 0, 1.7677669529663687),
                100: (1.2499999999999971, 0, 2.165063509461098),
                101: (0.6470476127563123, 0, 2.414814565722668),
                102: (-1.8385176503125007e-15, 0, 2.5),
                103: (-0.6470476127563073, 0, 2.4148145657226694),
                104: (-1.2499999999999925, 0, 2.165063509461101),
                105: (-1.7677669529663653, 0, 1.7677669529663722),
                106: (-2.165063509461096, 0, 1.250000000000001),
                107: (-2.414814565722669, 0, 0.6470476127563081),
                108: (-2.5, 0, 2.7554552980815448e-15),
                109: (-2.4148145657226703, 0, -0.6470476127563028),
                110: (-2.1650635094610986, 0, -1.2499999999999962),
                111: (-1.7677669529663693, 0, -1.7677669529663684),
                112: (-1.2499999999999973, 0, -2.165063509461098),
                113: (-0.6470476127563125, 0, -2.414814565722668),
                114: (-7.349428246475589e-15, 0, -2.5),
                115: (0.647047612756307, 0, -2.4148145657226694),
                116: (1.2499999999999922, 0, -2.165063509461101),
                117: (1.767766952966365, 0, -1.7677669529663724),
                118: (2.165063509461096, 0, -1.2500000000000013),
                119: (2.414814565722669, 0, -0.6470476127563084),
                120: (2.5, 0, -3.061616997868383e-15),
            }
            uniform token[] xformOpOrder = ["xformOp:translate"]
        }
    }

    def Sphere "ColorSphere"
    {
        color3f[] primvars:displayColor.timeSamples = {
            0: [(0.5, 0.9341073, 0.06668517)],
            1: [(0.62940955, 0.85510385, 0.016880881)],
            2: [(0.75, 0.75190073, 3.6590106e-7)],
            3: [(0.8535534, 0.63153094, 0.017194)],
            4: [(0.9330127, 0.50219756, 0.06729006)],
            5: [(0.9829629, 0.3727144, 0.14687459)],
            6: [(1, 0.25190553, 0.25052404)],
            7: [(0.9829629, 0.14800392, 0.37117487)],
            8: [(0.9330127, 0.06809025, 0.50060487)],
            9: [(0.8535534, 0.017610518, 0.62999374)],
            10: [(0.75, 0.0000048292236, 0.7505237)],
            11: [(0.62940955, 0.016472986, 0.85398084)],
            12: [(0.5, 0.06589271, 0.93331486)],
            13: [(0.37059048, 0.14489612, 0.98311913)],
            14: [(0.25, 0.24809928, 0.99999964)],
            15: [(0.14644662, 0.36846906, 0.982806)],
            16: [(0.0669873, 0.49780247, 0.93270993)],
            17: [(0.017037086, 0.6272856, 0.8531254)],
            18: [(0, 0.74809444, 0.74947596)],
            19: [(0.017037086, 0.85199606, 0.6288251)],
            20: [(0.0669873, 0.93190974, 0.4993951)],
            21: [(0.14644662, 0.9823895, 0.3700063)],
            22: [(0.25, 0.9999952, 0.24947633)],
            23: [(0.37059048, 0.983527, 0.14601915)],
            24: [(0.5, 0.9341073, 0.06668517)],
            25: [(0.62940955, 0.85510385, 0.016880881)],
            26: [(0.75, 0.75190073, 3.6590106e-7)],
            27: [(0.8535534, 0.63153094, 0.017194)],
            28: [(0.9330127, 0.50219756, 0.06729006)],
            29: [(0.9829629, 0.3727144, 0.14687459)],
            30: [(1, 0.25190553, 0.25052404)],
            31: [(0.9829629, 0.14800392, 0.37117487)],
            32: [(0.9330127, 0.06809025, 0.50060487)],
            33: [(0.8535534, 0.017610518, 0.62999374)],
            34: [(0.75, 0.0000048292236, 0.7505237)],
            35: [(0.62940955, 0.016472986, 0.85398084)],
            36: [(0.5, 0.06589271, 0.93331486)],
            37: [(0.37059048, 0.14489612, 0.98311913)],
            38: [(0.25, 0.24809928, 0.99999964)],
            39: [(0.14644662, 0.36846906, 0.982806)],
            40: [(0.0669873, 0.49780247, 0.93270993)],
            41: [(0.017037086, 0.6272856, 0.8531254)],
            42: [(0, 0.74809444, 0.74947596)],
            43: [(0.017037086, 0.85199606, 0.6288251)],
            44: [(0.0669873, 0.93190974, 0.4993951)],
            45: [(0.14644662, 0.9823895, 0.3700063)],
            46: [(0.25, 0.9999952, 0.24947633)],
            47: [(0.37059048, 0.983527, 0.14601915)],
            48: [(0.5, 0.9341073, 0.06668517)],
            49: [(0.62940955, 0.85510385, 0.016880881)],
            50: [(0.75, 0.75190073, 3.6590106e-7)],
            51: [(0.8535534, 0.63153094, 0.017194)],
            52: [(0.9330127, 0.50219756, 0.06729006)],
            53: [(0.9829629, 0.3727144, 0.14687459)],
            54: [(1, 0.25190553, 0.25052404)],
            55: [(0.9829629, 0.14800392, 0.37117487)],
            56: [(0.9330127, 0.06809025, 0.50060487)],
            57: [(0.8535534, 0.017610518, 0.62999374)],
            58: [(0.75, 0.0000048292236, 0.7505237)],
            59: [(0.62940955, 0.016472986, 0.85398084)],
            60: [(0.5, 0.06589271, 0.93331486)],
            61: [(0.37059048, 0.14489612, 0.98311913)],
            62: [(0.25, 0.24809928, 0.99999964)],
            63: [(0.14644662, 0.36846906, 0.982806)],
            64: [(0.0669873, 0.49780247, 0.93270993)],
            65: [(0.017037086, 0.6272856, 0.8531254)],
            66: [(0, 0.74809444, 0.74947596)],
            67: [(0.017037086, 0.85199606, 0.6288251)],
            68: [(0.0669873, 0.93190974, 0.4993951)],
            69: [(0.14644662, 0.9823895, 0.3700063)],
            70: [(0.25, 0.9999952, 0.24947633)],
            71: [(0.37059048, 0.983527, 0.14601915)],
            72: [(0.5, 0.9341073, 0.06668517)],
            73: [(0.62940955, 0.85510385, 0.016880881)],
            74: [(0.75, 0.75190073, 3.6590106e-7)],
            75: [(0.8535534, 0.63153094, 0.017194)],
            76: [(0.9330127, 0.50219756, 0.06729006)],
            77: [(0.9829629, 0.3727144, 0.14687459)],
            78: [(1, 0.25190553, 0.25052404)],
            79: [(0.9829629, 0.14800392, 0.37117487)],
            80: [(0.9330127, 0.06809025, 0.50060487)],
            81: [(0.8535534, 0.017610518, 0.62999374)],
            82: [(0.75, 0.0000048292236, 0.7505237)],
            83: [(0.62940955, 0.016472986, 0.85398084)],
            84: [(0.5, 0.06589271, 0.93331486)],
            85: [(0.37059048, 0.14489612, 0.98311913)],
            86: [(0.25, 0.24809928, 0.99999964)],
            87: [(0.14644662, 0.36846906, 0.982806)],
            88: [(0.0669873, 0.49780247, 0.93270993)],
            89: [(0.017037086, 0.6272856, 0.8531254)],
            90: [(0, 0.74809444, 0.74947596)],
            91: [(0.017037086, 0.85199606, 0.6288251)],
            92: [(0.0669873, 0.93190974, 0.4993951)],
            93: [(0.14644662, 0.9823895, 0.3700063)],
            94: [(0.25, 0.9999952, 0.24947633)],
            95: [(0.37059048, 0.983527, 0.14601915)],
            96: [(0.5, 0.9341073, 0.06668517)],
            97: [(0.62940955, 0.85510385, 0.016880881)],
            98: [(0.75, 0.75190073, 3.6590106e-7)],
            99: [(0.8535534, 0.63153094, 0.017194)],
            100: [(0.9330127, 0.50219756, 0.06729006)],
            101: [(0.9829629, 0.3727144, 0.14687459)],
            102: [(1, 0.25190553, 0.25052404)],
            103: [(0.9829629, 0.14800392, 0.37117487)],
            104: [(0.9330127, 0.06809025, 0.50060487)],
            105: [(0.8535534, 0.017610518, 0.62999374)],
            106: [(0.75, 0.0000048292236, 0.7505237)],
            107: [(0.62940955, 0.016472986, 0.85398084)],
            108: [(0.5, 0.06589271, 0.93331486)],
            109: [(0.37059048, 0.14489612, 0.98311913)],
            110: [(0.25, 0.24809928, 0.99999964)],
            111: [(0.14644662, 0.36846906, 0.982806)],
            112: [(0.0669873, 0.49780247, 0.93270993)],
            113: [(0.017037086, 0.6272856, 0.8531254)],
            114: [(0, 0.74809444, 0.74947596)],
            115: [(0.017037086, 0.85199606, 0.6288251)],
            116: [(0.0669873, 0.93190974, 0.4993951)],
            117: [(0.14644662, 0.9823895, 0.3700063)],
            118: [(0.25, 0.9999952, 0.24947633)],
            119: [(0.37059048, 0.983527, 0.14601915)],
            120: [(0.5, 0.9341073, 0.06668517)],
        }
        double radius = 0.5
        double3 xformOp:translate = (4, -3, 0)
        uniform token[] xformOpOrder = ["xformOp:translate"]
    }
}

